<?xml version="1.0"?>
<svg xmlns="http://www.w3.org/2000/svg" id="filled_outline" data-name="filled outline" viewBox="0 0 512 512" width="512" height="512"><rect x="56" y="48" width="104" height="80" style="fill:#ffa100"/><rect x="280" y="24" width="208" height="128" style="fill:#ffc431"/><path d="M432,112a15.99993,15.99993,0,0,0-16,16V96a16,16,0,0,0-32,0V80a16,16,0,0,0-32,0V96a16,16,0,0,0-32,0v56H280v56l32,64,104,32,32-88V128A15.99993,15.99993,0,0,0,432,112Z" style="fill:#ffceb6"/><polygon points="176 376 216 280 112 248 56 376 176 376" style="fill:#4976f2"/><rect x="160" y="40" width="120" height="96" style="fill:#ffb401"/><polygon points="56 48 24 32 24 144 56 128 56 48" style="fill:#ffc431"/><path d="M248,136v64l-32,80L112,248,80,200V112.88615A16.88614,16.88614,0,0,1,96.88615,96h0A16.88615,16.88615,0,0,1,113.669,111.02138L115.55556,128H160v8Z" style="fill:#ffceb6"/><path d="M312,272l-32.11051,83.48733A32,32,0,0,1,250.02243,376H24V488H283.74988a96,96,0,0,0,90.67169-64.462L416,304Z" style="fill:#548aff"/><path d="M488,16H280a7.99977,7.99977,0,0,0-8,8v8H160a7.99977,7.99977,0,0,0-8,8H57.88818L27.57764,24.84473A7.99974,7.99974,0,0,0,16,32V144a7.99971,7.99971,0,0,0,11.57764,7.15527L57.88818,136H72v64a7.996,7.996,0,0,0,1.34375,4.4375l29.57458,44.36182L50.76807,368H24a7.99977,7.99977,0,0,0-8,8V488a7.99977,7.99977,0,0,0,8,8H283.75a104.08422,104.08422,0,0,0,98.22754-69.8335l41.562-119.49035,31.979-87.94226A8.00428,8.00428,0,0,0,456,216V160h32a7.99977,7.99977,0,0,0,8-8V24A7.99977,7.99977,0,0,0,488,16ZM272.84473,211.57764l30.42187,60.84375-30.84375,80.19384A24.14406,24.14406,0,0,1,250.02246,368H188.00024l35.38453-84.92285-.00757-.00318c.01489-.03564.03613-.06677.05053-.10278l32-80A8.00164,8.00164,0,0,0,256,200V144h16v64A7.99583,7.99583,0,0,0,272.84473,211.57764ZM272,48v80H168V48ZM32,44.94434l16,7.99975v70.11182l-16,7.99975ZM64,120V56h88v64H122.71588l-1.09576-9.86182A24.88615,24.88615,0,0,0,72,112.88623V120Zm24-7.11377a8.88606,8.88606,0,0,1,17.71777-.98144l6.33106,56.97851a8.00087,8.00087,0,0,0,3.51365,5.773A45.80523,45.80523,0,0,1,136,212.84424V216h16v-3.15576a61.75812,61.75812,0,0,0-24.44385-49.28076L124.49359,136H144v24h16V144h16v16h16V144h16v16h16V144h16v54.45947l-28.69092,71.727-94.2334-28.99463L88,197.57764Zm28.46844,144.859,88.75818,27.31018L170.66644,368H68.232ZM366.86523,420.91016A88.07085,88.07085,0,0,1,283.75,480H32V384H250.02246a40.23975,40.23975,0,0,0,37.334-25.64062l29.42932-76.517,88.933,27.36389ZM440,214.59033,411.08154,294.1167l-93.457-28.75635L288,206.11133V160h24v40h16V96a8,8,0,0,1,16,0v56h16V80a8,8,0,0,1,16,0v72h16V96a8,8,0,0,1,16,0v56h16V128a8,8,0,0,1,16,0ZM480,144H456V128a23.99123,23.99123,0,0,0-32-22.62378V96a23.98547,23.98547,0,0,0-32.84583-22.30347,23.99574,23.99574,0,0,0-46.30834,0A23.98547,23.98547,0,0,0,312,96v48H288V32H480Z"/></svg>
