<?xml version="1.0" encoding="utf-8"?>
<!-- Generator: Adobe Illustrator 18.0.0, SVG Export Plug-In . SVG Version: 6.00 Build 0)  -->
<!DOCTYPE svg PUBLIC "-//W3C//DTD SVG 1.1//EN" "http://www.w3.org/Graphics/SVG/1.1/DTD/svg11.dtd">
<svg version="1.1" id="Layer_1" xmlns="http://www.w3.org/2000/svg" xmlns:xlink="http://www.w3.org/1999/xlink" x="0px" y="0px"
	 viewBox="0 0 512 512" enable-background="new 0 0 512 512" xml:space="preserve">
<path fill="#1D9920" d="M204.6,250.3c1.2,0,2.5,0,3.8,0c5.9,0,12.8,0.2,20.3,0.7c0.3,0,0.5,0,0.8,0.1c0.6,0,1.1,0.1,1.7,0.1
	c18.5,1.4,40.3,4.4,60.3,9.9c33.4,9.1,51.6,22,54.2,38.3c0,0,0,0,0,0c0,0.1,0,0.1,0,0.2c0.1,0.5,0.1,0.9,0.2,1.4
	c19.6-14,46.7-28.2,69.7-34.8c0.1,0,0.3-0.1,0.4-0.1c0.6-0.2,1.3-0.4,1.9-0.5c0.5-0.1,1-0.3,1.5-0.4c0.3-0.1,0.5-0.1,0.8-0.2
	c0.8-0.2,1.6-0.4,2.4-0.6c-12.9-25-60.5-43.2-114.8-43.2C264.8,221,225.4,232.5,204.6,250.3z"/>
<path fill="#0B3247" d="M131.7,347.3c-5.2-8.8-10.7-17.7-15.9-25.5c-6.6-9.9-12.7-18.1-16.8-22.1c-6-5.8-9.7-8.4-12-8.4
	c-0.4,0-1.1,0.1-2.4,0.7c-10.4,5.1-36.3,23.1-38.8,28.2c-1.3,2.8-0.5,5.3,1.6,10.5c1.1,2.7,2.3,5.8,3.2,9.6
	c4.3,17.1,3.4,37.1,2.6,56.5c-0.9,19.9-1.7,38.7,3,52.5c0.2,0.6,0.4,1.2,2.5,1.2c2.9,0,7.1-1.4,11.1-3.8c5.2-3.1,15.3-7.9,26.9-13.4
	c12.2-5.8,26-12.4,37.2-18.4c17.3-9.2,19.7-12.5,20-13.1c1.7-3.7,0.7-9.8-2.9-18.1C147.6,375.4,140.1,361.5,131.7,347.3z
	 M104.1,399.9c-5.6,0.6-10.7-3.4-11.3-9c-0.6-5.6,3.4-10.6,9-11.3c5.6-0.6,10.7,3.4,11.3,9C113.8,394.2,109.7,399.3,104.1,399.9z"/>
<path fill="#275B7C" d="M466.8,288.2c-0.9-12.1-18.5-16.4-30.1-16.4c-2,0-3.8,0.1-5.5,0.3c-0.7,0.1-1.4,0.2-2.2,0.3
	c-0.3,0-0.5,0.1-0.8,0.1c-0.6,0.1-1.1,0.2-1.7,0.3c-0.3,0.1-0.6,0.1-0.9,0.2c-0.5,0.1-1.1,0.2-1.6,0.4c-0.4,0.1-0.8,0.2-1.2,0.3
	c-0.4,0.1-0.9,0.2-1.3,0.3c-0.5,0.1-1.1,0.3-1.6,0.4c-0.3,0.1-0.6,0.2-0.9,0.2c-0.7,0.2-1.4,0.4-2.2,0.6c-0.1,0-0.2,0.1-0.3,0.1
	c-24,7.3-53.3,23.5-71.4,37.6c-0.4,0.3-0.9,0.7-1.3,1c-1.2,2.4-2.8,4.3-4.3,5.6c-6.4,5.7-16.8,7.9-29,7.9c-20,0-45-5.8-65-11.2
	c-1.3-0.4-2.4-0.6-3.3-0.9c-2.5-0.7-4-3.2-3.4-5.7c0.7-2.5,3.2-4,5.7-3.4c0.9,0.2,2.1,0.5,3.4,0.9c8.8,2.4,27,7.2,44.7,9.6
	c25.9,3.4,36.4-0.4,40.6-4.2c1.9-1.7,3-3.8,3.3-6.5c0,0,0-0.1,0-0.1c0.1-0.5,0.1-0.9,0.1-1.4c0-0.1,0-0.2,0-0.3c0-0.5,0-1,0-1.5
	c0-0.1,0-0.3,0-0.4c0-0.5-0.1-1.1-0.2-1.6c0,0,0,0,0-0.1c-3.5-22.4-56.8-36.3-103.2-40.1c-8.6-0.7-16.9-1.1-24.7-1.1
	c-5.6,0-10.6,0.2-15,0.6c0,0,0,0-0.1,0c-2.9,0.3-5.5,0.6-7.6,1c-21.2,4.2-50.5,21.3-72,33.8c-1.4,0.8-2.8,1.7-4.2,2.5
	c0.1,0.1,0.2,0.2,0.3,0.4c0.3,0.4,0.6,0.7,0.9,1.1c0.2,0.2,0.4,0.5,0.6,0.7c0.2,0.3,0.5,0.6,0.7,0.9c0.2,0.3,0.5,0.6,0.7,0.9
	c0.3,0.4,0.6,0.7,0.9,1.1c0.2,0.2,0.4,0.5,0.5,0.7c0.4,0.5,0.8,1,1.1,1.5c0.2,0.2,0.3,0.4,0.5,0.7c0.4,0.5,0.7,1,1.1,1.5
	c0.2,0.2,0.3,0.4,0.5,0.6c0.4,0.5,0.8,1.1,1.1,1.6c0.1,0.2,0.3,0.4,0.4,0.6c0.4,0.6,0.9,1.3,1.3,1.9c0.1,0.2,0.3,0.4,0.4,0.6
	c0.5,0.7,0.9,1.4,1.4,2.1c0.1,0.1,0.1,0.2,0.2,0.3c0.5,0.7,0.9,1.4,1.4,2c0.1,0.1,0.2,0.2,0.2,0.4c0.5,0.7,1,1.5,1.5,2.3
	c0.1,0.1,0.2,0.3,0.3,0.4c0.5,0.8,1,1.6,1.5,2.3c0.1,0.1,0.1,0.2,0.2,0.3c0.5,0.8,1,1.6,1.5,2.4c0,0,0.1,0.1,0.1,0.1
	c0.5,0.8,1,1.7,1.6,2.5c0.1,0.1,0.2,0.3,0.3,0.4c0.5,0.8,1,1.6,1.5,2.5c0.1,0.1,0.1,0.2,0.2,0.3c1.1,1.7,2.1,3.4,3.1,5.1
	c0.1,0.1,0.2,0.3,0.3,0.4c0.5,0.8,1,1.6,1.5,2.4c0.1,0.2,0.2,0.3,0.3,0.5c0.5,0.8,1,1.6,1.5,2.4c0.1,0.1,0.1,0.2,0.2,0.3
	c0.4,0.7,0.9,1.5,1.3,2.2c0.1,0.2,0.2,0.4,0.3,0.6c0.4,0.7,0.9,1.5,1.3,2.2c0.1,0.3,0.3,0.5,0.4,0.8c0.4,0.7,0.8,1.4,1.2,2.1
	c0.2,0.3,0.3,0.5,0.5,0.8c0.3,0.5,0.6,1,0.9,1.6c0.2,0.3,0.4,0.7,0.6,1c0.3,0.6,0.7,1.2,1,1.7c0.2,0.3,0.4,0.7,0.6,1
	c0.3,0.6,0.7,1.2,1,1.8c0.2,0.4,0.4,0.7,0.6,1.1c0.2,0.3,0.4,0.6,0.5,1c0.3,0.6,0.7,1.3,1,1.9c0.1,0.3,0.3,0.5,0.4,0.8
	c0.7,1.3,1.4,2.6,2.1,3.9c0.1,0.2,0.2,0.3,0.2,0.5c0.4,0.7,0.8,1.5,1.1,2.2c0.1,0.1,0.1,0.2,0.2,0.3c0.6,1.3,1.3,2.5,1.8,3.6
	c0,0,0,0.1,0.1,0.1c0.4,0.7,0.7,1.4,1,2.1c0,0.1,0.1,0.2,0.1,0.3c0.1,0.3,0.3,0.5,0.4,0.8c18.5-6.8,34.8-10.1,49.8-10.1
	c17.6,0,31.6,4.5,45.1,8.8c14.2,4.6,28.9,9.3,48.6,9.3c3.2,0,6.5-0.1,9.8-0.4c17-1.3,56-18.1,92.7-40.1
	C448.3,317.1,467.5,296.7,466.8,288.2z"/>
<path fill="#1D9920" d="M214.8,159c7.2,5.5,16.2,8.2,26.6,8.2c0,0,0,0,0,0c7.3,0,15.3-1.4,23.8-4l37.8,33.8v22.4
	c0,2.6,2.1,4.7,4.7,4.7s4.7-2.1,4.7-4.7v-58.7l34.4-28.7c0.3,0.1,0.6,0.2,0.9,0.3c6.3,1.3,12.4,1.9,18,1.9c14.5,0,26-4.1,34.2-12.3
	c11.4-11.3,15-29.3,10.5-51.9c-0.4-1.9-1.8-3.3-3.7-3.7c-6.3-1.3-12.4-1.9-18-1.9c-14.5,0-26,4.1-34.2,12.3
	c-10.4,10.3-14.3,26.3-11.4,46.2l-30.7,25.6V86.9c0-2.6-2.1-4.7-4.7-4.7s-4.7,2.1-4.7,4.7v97.5l-31.9-28.5
	c0.9-21.9-5.1-38.4-17.5-47.7c-7.2-5.4-16.2-8.2-26.6-8.2c-8,0-16.9,1.7-26.4,4.9c-1.8,0.6-3,2.3-3.2,4.1
	C196,132,202.1,149.3,214.8,159z"/>
<path d="M359.1,121.4c0.3,0,0.6,0.1,0.9,0.1C359.7,121.5,359.4,121.5,359.1,121.4z"/>
<path d="M362.1,121.7c0.3,0,0.6,0,0.9,0C362.7,121.7,362.4,121.7,362.1,121.7z"/>
<path fill="#3A380C" d="M401.7,71.9c2.2,13.2,2.1,29.8-8.4,40.3c-6.4,6.3-15.6,9.6-27.6,9.6c0,0,0,0,0,0c11.9,0,21.2-3.2,27.6-9.6
	C403.9,101.7,403.9,85,401.7,71.9c-4.6-0.8-9-1.1-13-1.1c0,0,0,0,0,0C392.8,70.7,397.2,71.1,401.7,71.9z"/>
<path d="M354.8,89.8c-0.1,0.3-0.3,0.6-0.4,0.9C354.5,90.4,354.7,90.1,354.8,89.8z"/>
<path d="M360.9,80.6c-0.3,0.3-0.7,0.7-1,1C360.2,81.3,360.6,80.9,360.9,80.6z"/>
<path d="M359.4,82.2c-0.4,0.4-0.7,0.8-1,1.3C358.7,83,359.1,82.6,359.4,82.2z"/>
<path d="M358,84.1c-0.2,0.3-0.4,0.6-0.7,1C357.5,84.7,357.8,84.4,358,84.1z"/>
<path d="M356.9,85.7c-0.3,0.4-0.5,0.9-0.8,1.3C356.4,86.5,356.7,86.1,356.9,85.7z"/>
<path d="M355.8,87.7c-0.2,0.4-0.4,0.7-0.5,1.1C355.4,88.4,355.6,88.1,355.8,87.7z"/>
<path d="M351.6,107.2c0,0.1,0,0.3,0,0.4C351.6,107.5,351.6,107.4,351.6,107.2z"/>
<path d="M354.1,91.6c-0.2,0.5-0.3,0.9-0.5,1.4C353.8,92.5,353.9,92,354.1,91.6z"/>
<path d="M353.4,93.9c-0.1,0.3-0.2,0.6-0.2,0.9C353.2,94.4,353.3,94.2,353.4,93.9z"/>
<path d="M352.8,96.1c-0.1,0.3-0.1,0.6-0.2,0.9C352.7,96.7,352.7,96.4,352.8,96.1z"/>
<path d="M352.4,98c-0.1,0.3-0.1,0.6-0.1,0.8C352.3,98.6,352.4,98.3,352.4,98z"/>
<path d="M352,100.4c0,0.2-0.1,0.5-0.1,0.7C352,100.9,352,100.7,352,100.4z"/>
<path d="M351.8,103c0,0.2,0,0.4,0,0.5C351.7,103.3,351.7,103.2,351.8,103z"/>
<path d="M351.6,104.7c0,0.2,0,0.4,0,0.6C351.6,105,351.6,104.9,351.6,104.7z"/>
<path d="M351.7,111.5c0,0.1,0,0.2,0,0.3C351.7,111.6,351.7,111.5,351.7,111.5z"/>
<path fill="#3A380C" d="M351.8,112.7l14.4-12c1-0.8,2.2-1.2,3.4-1.1c-1.2-0.1-2.4,0.2-3.4,1.1L351.8,112.7
	C351.8,112.7,351.8,112.7,351.8,112.7z"/>
<path d="M241.5,154.8C241.5,154.8,241.5,154.8,241.5,154.8C241.5,154.8,241.5,154.8,241.5,154.8
	C241.5,154.8,241.5,154.8,241.5,154.8L241.5,154.8z"/>
<path fill="#3A380C" d="M255.1,153.2c0.6-0.1,1.2-0.3,1.9-0.4l-14.3-12.8c-1.9-1.7-2.1-4.7-0.4-6.6c0.9-1,2-1.5,3.2-1.6
	c-1.2,0.1-2.4,0.6-3.2,1.6c-1.7,1.9-1.6,4.9,0.4,6.6l14.3,12.8C256.4,152.9,255.7,153,255.1,153.2z"/>
<path d="M243.6,154.8c0.3,0,0.5,0,0.8,0C244.1,154.7,243.8,154.8,243.6,154.8z"/>
<path d="M245.7,154.6c0.3,0,0.7-0.1,1-0.1C246.4,154.6,246,154.6,245.7,154.6z"/>
<path d="M247.8,154.4c1.6-0.2,3.2-0.4,4.8-0.7C251,154,249.4,154.3,247.8,154.4z"/>
<path d="M253,153.6c0.6-0.1,1.2-0.2,1.8-0.4C254.2,153.4,253.6,153.5,253,153.6z"/>
<path fill="#3A380C" d="M261.8,144.5L261.8,144.5c-0.5-10.3-3.1-21.2-10.3-28.8C258.7,123.2,261.3,134.2,261.8,144.5z"/>
<path d="M251.4,115.6c-0.5-0.5-1-1-1.6-1.5C250.4,114.6,250.9,115.1,251.4,115.6z"/>
<path fill="#3A380C" d="M248,112.6c0.6,0.5,1.2,0.9,1.7,1.4C249.2,113.5,248.6,113,248,112.6c-5.5-4.2-12.6-6.3-21-6.3c0,0,0,0,0,0
	C235.4,106.3,242.5,108.4,248,112.6z"/>
<g id="Layer_1_1_">
</g>
</svg>
