<?xml version="1.0" encoding="utf-8"?>
<!-- Generator: Adobe Illustrator 23.0.1, SVG Export Plug-In . SVG Version: 6.00 Build 0)  -->
<svg version="1.1" id="Capa_1" xmlns="http://www.w3.org/2000/svg" xmlns:xlink="http://www.w3.org/1999/xlink" x="0px" y="0px"
	 viewBox="0 0 198.3 198.3" style="enable-background:new 0 0 198.3 198.3;" xml:space="preserve">
<style type="text/css">
	.st0{fill:#193154;}
</style>
<path class="st0" d="M174.1,188.3h-44.8L148,69.4c0.2-1.4-0.2-2.9-1.1-4c-0.9-1.1-2.3-1.8-3.8-1.8h-8.2V50.3
	c0-8.7-7.9-15.7-17.6-15.7h-3.4c2.6-3.6,4.2-8.3,4.2-13.3C118,9.6,109.5,0,99.1,0S80.2,9.6,80.2,21.3c0,5,1.6,9.6,4.2,13.3H81
	c-9.7,0-17.6,7-17.6,15.7v13.3h-9.2c-1.5,0-2.9,0.6-3.8,1.8S49,68,49.3,69.4l19.7,118.9H24.2c-2.8,0-5,2.2-5,5s2.2,5,5,5h50.6h48.6
	h50.6c2.8,0,5-2.2,5-5S176.8,188.3,174.1,188.3z M85.4,84.6h27.5c2.8,0,5,2.2,5,5s-2.2,5-5,5H85.4c-2.8,0-5-2.2-5-5
	S82.6,84.6,85.4,84.6z M119.2,112.1H79.1c-2.8,0-5-2.2-5-5s2.2-5,5-5h40.2c2.8,0,5,2.2,5,5C124.2,109.9,122,112.1,119.2,112.1z"/>
</svg>
